<svg xmlns="http://www.w3.org/2000/svg" version="1.1" xmlns:xlink="http://www.w3.org/1999/xlink" viewBox="0 0 15.857001637059735 13.429364259130049"><g transform="matrix(1,0,0,1,4.013119636151638,5.874969488491779)"><g transform="matrix(1,0,0,1,0,0)"><g clip-path="url(#SvgjsClipPath1000)"><path d=" M 0.6066957669903956 -4.6597434258212855 L 7.224066597766065 -4.6597434258212855 C 8.177459639279311 -4.6597434258212855 8.950337249272762 -3.886865815827835 8.950337249272762 -2.9334727743145894 L 8.950337249272762 3.6838980564610795 C 8.950337249272762 4.637291097974326 8.177459639279311 5.4101687079677765 7.224066597766065 5.4101687079677765 L 0.6066957669903956 5.4101687079677765 C -0.34669727452284993 5.4101687079677765 -1.1195748845163007 4.637291097974326 -1.1195748845163007 3.6838980564610795 L -1.1195748845163007 -2.9334727743145894 C -1.1195748845163007 -3.886865815827835 -0.34669727452284993 -4.6597434258212855 0.6066957669903956 -4.6597434258212855 Z" fill="#8c1627" transform="matrix(1,0,0,1,0,0)" fill-rule="nonzero"></path></g></g><g transform="matrix(1,0,0,1,0,0)"><path d=" M 0.0944243732502207 0.011927289252659623 L 0.4850430962748179 0.011927289252659623 Q 0.5675401802723792 0.011927289252659623 0.6294129932705501 0.02584246004742896 Q 0.691285806268721 0.0397576308421983 0.7327828334602654 0.06535160569686338 Q 0.7742798606518098 0.09094558055152846 0.7951526168439638 0.12697593350227065 Q 0.8160253730361178 0.16300628645301274 0.8160253730361178 0.20723665076495823 Q 0.8160253730361178 0.2514670150769037 0.7914253389525077 0.29047919034081066 Q 0.7668253048688976 0.32949136560471765 0.7196131182437873 0.35781867757978386 Q 0.7971404983860737 0.3801823449285203 0.8354072180716894 0.42341876846941084 Q 0.8736739377573052 0.46665519201030137 0.8736739377573052 0.5292734605867635 Q 0.8736739377573052 0.5720129137421266 0.8530496667579148 0.6117705445843248 Q 0.8324253957585246 0.651528175426523 0.7914253389525077 0.6823403393292266 Q 0.7504252821464908 0.7131525032319301 0.6888009543410836 0.7317888926892105 Q 0.6271766265356764 0.750425282146491 0.5446795425381152 0.750425282146491 L 0.0944243732502207 0.750425282146491 L 0.0944243732502207 0.011927289252659623 M 0.4124854199878062 0.3120974021112559 Q 0.45323699160105935 0.3120974021112559 0.4810673331905981 0.30439436113558005 Q 0.5088976747801368 0.2966913201599041 0.5255461826953073 0.28327311975066227 Q 0.5421946906104778 0.26985491934142036 0.5494007612006262 0.25246095584795863 Q 0.5566068317907746 0.2350669923544969 0.5566068317907746 0.21618211770445284 Q 0.5566068317907746 0.19729724305440866 0.5494007612006262 0.17990327956094698 Q 0.5421946906104778 0.1625093160674852 0.5255461826953073 0.14933960085100706 Q 0.5088976747801368 0.13616988563452892 0.4810673331905981 0.12821835946608928 Q 0.45323699160105935 0.12026683329764964 0.4124854199878062 0.12026683329764964 L 0.3821702264706301 0.12026683329764964 L 0.3816732560851026 0.3120974021112559 L 0.4124854199878062 0.3120974021112559 M 0.4124854199878062 0.6420857381015009 Q 0.4567157842997517 0.6420857381015009 0.48703097781692783 0.6326433007764788 Q 0.5173461713341039 0.6232008634514568 0.5362310459841481 0.6068008407290499 Q 0.5551159206341922 0.5904008180066432 0.5635644171881593 0.5682856358506705 Q 0.5720129137421265 0.5461704536946977 0.5720129137421265 0.5208249640327964 Q 0.5720129137421265 0.4984612966840599 0.5630674468026319 0.4770915701063784 Q 0.5541219798631373 0.4557218435286969 0.5364795311769118 0.4390733356135264 Q 0.5188370824906864 0.4224248276983559 0.49299462244325754 0.41223693479504264 Q 0.4671521623958287 0.40204904189172935 0.43335817617996025 0.40204904189172935 L 0.3816732560851026 0.40204904189172935 L 0.3816732560851026 0.6420857381015009 L 0.4124854199878062 0.6420857381015009 M 1.215092592614682 0.19829118382546362 L 1.129613686303956 0.011927289252659623 L 1.4322686510901899 0.011927289252659623 L 1.7940630917541933 0.7509222525320184 L 1.4695414300047505 0.7509222525320184 L 1.4148746875967282 0.6326433007764788 L 1.1236500416776263 0.6326433007764788 L 1.0694802696551313 0.7509222525320184 L 0.9437467621166795 0.7509222525320184 L 1.215092592614682 0.19829118382546362 M 1.362692797116343 0.5188370824906865 L 1.2692623646371772 0.31607316519547574 L 1.1763289025435388 0.5188370824906865 L 1.362692797116343 0.5188370824906865 M 1.8954450504017988 0.011927289252659623 L 2.3213486707988467 0.011927289252659623 Q 2.403845754796408 0.011927289252659623 2.465718567794579 0.029321252746121296 Q 2.52759138079275 0.04671521623958297 2.569088407984294 0.07802435052781409 Q 2.610585435175839 0.10933348481604521 2.631458191367993 0.15306687874246316 Q 2.652330947560147 0.19680027266888123 2.652330947560147 0.24947913353479378 Q 2.652330947560147 0.31458225403889334 2.621518783657443 0.36502474816993224 Q 2.5907066197547395 0.4154672423009712 2.530076232720387 0.4452854654326199 L 2.68513099300496 0.7509222525320184 L 2.3606093312555174 0.7509222525320184 L 2.2433243202710327 0.48255824434718064 L 2.1826939332366804 0.48255824434718064 L 2.1826939332366804 0.750425282146491 L 1.8954450504017988 0.750425282146491 L 1.8954450504017988 0.011927289252659623 M 2.2000878967301425 0.39260660456670726 Q 2.2353727941025934 0.39260660456670726 2.263203135692132 0.3826671968561577 Q 2.2910334772816707 0.37272778914560817 2.310415322317242 0.35458837007385524 Q 2.329797167352814 0.3364489510021023 2.340233545448891 0.3113519465329647 Q 2.350669923544968 0.2862549420638271 2.350669923544968 0.25643671893217845 Q 2.350669923544968 0.22661849580052984 2.340233545448891 0.2015214913313922 Q 2.329797167352814 0.17642448686225465 2.310415322317242 0.15828506779050167 Q 2.2910334772816707 0.1401456487187488 2.263203135692132 0.13020624100819922 Q 2.2353727941025934 0.12026683329764964 2.2000878967301425 0.12026683329764964 L 2.183190903622208 0.12026683329764964 L 2.1826939332366804 0.39260660456670726 L 2.2000878967301425 0.39260660456670726 M 2.8222948194105437 0.011927289252659623 L 3.212913542435141 0.011927289252659623 Q 3.2954106264327025 0.011927289252659623 3.3572834394308733 0.02584246004742896 Q 3.419156252429044 0.0397576308421983 3.4606532796205887 0.06535160569686338 Q 3.502150306812133 0.09094558055152846 3.523023063004287 0.12697593350227065 Q 3.543895819196441 0.16300628645301274 3.543895819196441 0.20723665076495823 Q 3.543895819196441 0.2514670150769037 3.519295785112831 0.29047919034081066 Q 3.4946957510292207 0.32949136560471765 3.44748356440411 0.35781867757978386 Q 3.5250109445463966 0.3801823449285203 3.5632776642320128 0.42341876846941084 Q 3.6015443839176284 0.46665519201030137 3.6015443839176284 0.5292734605867635 Q 3.6015443839176284 0.5720129137421266 3.580920112918238 0.6117705445843248 Q 3.5602958419188475 0.651528175426523 3.519295785112831 0.6823403393292266 Q 3.478295728306814 0.7131525032319301 3.4166714005014067 0.7317888926892105 Q 3.3550470726959993 0.750425282146491 3.2725499886984384 0.750425282146491 L 2.8222948194105437 0.750425282146491 L 2.8222948194105437 0.011927289252659623 M 3.1403558661481292 0.3120974021112559 Q 3.1811074377613826 0.3120974021112559 3.2089377793509213 0.30439436113558005 Q 3.23676812094046 0.2966913201599041 3.2534166288556303 0.28327311975066227 Q 3.2700651367708007 0.26985491934142036 3.2772712073609496 0.25246095584795863 Q 3.2844772779510976 0.2350669923544969 3.2844772779510976 0.21618211770445284 Q 3.2844772779510976 0.19729724305440866 3.2772712073609496 0.17990327956094698 Q 3.2700651367708007 0.1625093160674852 3.2534166288556303 0.14933960085100706 Q 3.23676812094046 0.13616988563452892 3.2089377793509213 0.12821835946608928 Q 3.1811074377613826 0.12026683329764964 3.1403558661481292 0.12026683329764964 L 3.1100406726309533 0.12026683329764964 L 3.1095437022454258 0.3120974021112559 L 3.1403558661481292 0.3120974021112559 M 3.1403558661481292 0.6420857381015009 Q 3.184586230460075 0.6420857381015009 3.214901423977251 0.6326433007764788 Q 3.2452166174944272 0.6232008634514568 3.264101492144471 0.6068008407290499 Q 3.2829863667945154 0.5904008180066432 3.2914348633484822 0.5682856358506705 Q 3.2998833599024495 0.5461704536946977 3.2998833599024495 0.5208249640327964 Q 3.2998833599024495 0.4984612966840599 3.290937892962955 0.4770915701063784 Q 3.2819924260234603 0.4557218435286969 3.264349977337235 0.4390733356135264 Q 3.2467075286510094 0.4224248276983559 3.2208650686035805 0.41223693479504264 Q 3.195022608556152 0.40204904189172935 3.1612286223402832 0.40204904189172935 L 3.1095437022454258 0.40204904189172935 L 3.1095437022454258 0.6420857381015009 L 3.1403558661481292 0.6420857381015009 M 3.942963038775005 0.19829118382546362 L 3.8574841324642795 0.011927289252659623 L 4.160139097250513 0.011927289252659623 L 4.521933537914516 0.7509222525320184 L 4.197411876165074 0.7509222525320184 L 4.142745133757051 0.6326433007764788 L 3.8515204878379494 0.6326433007764788 L 3.7973507158154547 0.7509222525320184 L 3.6716172082770027 0.7509222525320184 L 3.942963038775005 0.19829118382546362 M 4.090563243276666 0.5188370824906865 L 3.9971328107975004 0.31607316519547574 L 3.9041993487038624 0.5188370824906865 L 4.090563243276666 0.5188370824906865 M 4.623315496562122 0.011927289252659623 L 5.049219116959169 0.011927289252659623 Q 5.131716200956731 0.011927289252659623 5.193589013954902 0.029321252746121296 Q 5.255461826953073 0.04671521623958297 5.296958854144617 0.07802435052781409 Q 5.338455881336161 0.10933348481604521 5.359328637528316 0.15306687874246316 Q 5.380201393720469 0.19680027266888123 5.380201393720469 0.24947913353479378 Q 5.380201393720469 0.31458225403889334 5.349389229817766 0.36502474816993224 Q 5.318577065915062 0.4154672423009712 5.25794667888071 0.4452854654326199 L 5.413001439165283 0.7509222525320184 L 5.088479777415841 0.7509222525320184 L 4.971194766431355 0.48255824434718064 L 4.9105643793970035 0.48255824434718064 L 4.9105643793970035 0.750425282146491 L 4.623315496562122 0.750425282146491 L 4.623315496562122 0.011927289252659623 M 4.927958342890466 0.39260660456670726 Q 4.9632432402629165 0.39260660456670726 4.991073581852455 0.3826671968561577 Q 5.018903923441994 0.37272778914560817 5.038285768477565 0.35458837007385524 Q 5.057667613513137 0.3364489510021023 5.068103991609214 0.3113519465329647 Q 5.078540369705291 0.2862549420638271 5.078540369705291 0.25643671893217845 Q 5.078540369705291 0.22661849580052984 5.068103991609214 0.2015214913313922 Q 5.057667613513137 0.17642448686225465 5.038285768477565 0.15828506779050167 Q 5.018903923441994 0.1401456487187488 4.991073581852455 0.13020624100819922 Q 4.9632432402629165 0.12026683329764964 4.927958342890466 0.12026683329764964 L 4.911061349782531 0.12026683329764964 L 4.9105643793970035 0.39260660456670726 L 4.927958342890466 0.39260660456670726 M 5.550165265570867 0.011927289252659623 L 5.837911118791276 0.011927289252659623 L 5.837414148405749 0.750425282146491 L 5.550165265570867 0.750425282146491 L 5.550165265570867 0.011927289252659623 M 6.0267598652917185 0.011927289252659623 L 6.206663144852665 0.011927289252659623 L 6.675306218405076 0.4055278345904217 L 6.675803188790604 0.011927289252659623 L 6.785136673606648 0.011927289252659623 L 6.785136673606648 0.750425282146491 L 6.605233394045702 0.750425282146491 L 6.136093350107763 0.35831564796531135 L 6.136093350107763 0.750425282146491 L 6.0267598652917185 0.750425282146491 L 6.0267598652917185 0.011927289252659623 M 6.9307489965662 0.37968537454299284 Q 6.9307489965662 0.29569737938884916 6.957585397384683 0.22587304022223864 Q 6.984421798203167 0.15604870105562807 7.037597629454607 0.10585469211735288 Q 7.090773460706047 0.055660683179077575 7.170288722390444 0.0278303415895389 Q 7.24980398407484 1.1102230246251565e-16 7.355161705806665 1.1102230246251565e-16 Q 7.4605194275384905 1.1102230246251565e-16 7.540034689222887 0.0278303415895389 Q 7.619549950907283 0.055660683179077575 7.672725782158723 0.10585469211735288 Q 7.725901613410163 0.15604870105562807 7.7527380142286475 0.22587304022223864 Q 7.779574415047131 0.29569737938884916 7.779574415047131 0.37968537454299284 Q 7.779574415047131 0.4646673104681915 7.7527380142286475 0.5352371052130933 Q 7.725901613410163 0.6058068999579951 7.672725782158723 0.6560009088962703 Q 7.619549950907283 0.7061949178345455 7.540034689222887 0.7340252594240843 Q 7.4605194275384905 0.7618556010136229 7.355161705806665 0.7618556010136229 Q 7.24980398407484 0.7618556010136229 7.170288722390444 0.7340252594240843 Q 7.090773460706047 0.7061949178345455 7.037597629454607 0.6560009088962703 Q 6.984421798203167 0.6058068999579951 6.957585397384683 0.5352371052130933 Q 6.9307489965662 0.4646673104681915 6.9307489965662 0.37968537454299284 M 7.355161705806665 0.6589827312094352 Q 7.384979928938314 0.6589827312094352 7.4078405666725775 0.6485463531133581 Q 7.430701204406842 0.6381099750172811 7.446107286358194 0.607794781500105 Q 7.461513368309546 0.5774795879829289 7.469464894477985 0.5228128455749064 Q 7.477416420646424 0.4681461031668838 7.477416420646424 0.37968537454299284 Q 7.477416420646424 0.2922185866901568 7.469464894477985 0.2380488146676618 Q 7.461513368309546 0.18387904264516675 7.446107286358194 0.15406081951351813 Q 7.430701204406842 0.12424259638186952 7.4078405666725775 0.11380621828579252 Q 7.384979928938314 0.1033698401897154 7.355161705806665 0.1033698401897154 Q 7.325343482675017 0.1033698401897154 7.302234359747989 0.11380621828579252 Q 7.279125236820962 0.12424259638186952 7.26371915486961 0.15406081951351813 Q 7.248313072918258 0.18387904264516675 7.240361546749818 0.2380488146676618 Q 7.232410020581378 0.2922185866901568 7.232410020581378 0.37968537454299284 Q 7.232410020581378 0.4681461031668838 7.240361546749818 0.5228128455749064 Q 7.248313072918258 0.5774795879829289 7.26371915486961 0.607794781500105 Q 7.279125236820962 0.6381099750172811 7.302234359747989 0.6485463531133581 Q 7.325343482675017 0.6589827312094352 7.355161705806665 0.6589827312094352" fill="#ffffff" fill-rule="nonzero"></path></g><g transform="matrix(1,0,0,1,0,0)"><path d=" M -2.742093573481144 5.913168707967777 L -2.6028935734811443 6.142368707967777 L -2.462493573481144 5.913168707967777 L -2.4168935734811443 5.913168707967777 L -2.5818935734811443 6.180768707967776 L -2.5818935734811443 6.339168707967777 L -2.623893573481144 6.339168707967777 L -2.623893573481144 6.179568707967777 L -2.7882935734811443 5.913168707967777 L -2.742093573481144 5.913168707967777 M -2.209591229731144 6.342168707967777 Q -2.254591229731144 6.342168707967777 -2.291191229731144 6.324168707967777 Q -2.3277912297311443 6.306168707967776 -2.354191229731144 6.2752687079677765 Q -2.3805912297311442 6.2443687079677765 -2.394991229731144 6.205668707967777 Q -2.409391229731144 6.166968707967777 -2.409391229731144 6.126168707967777 Q -2.409391229731144 6.0835687079677765 -2.394391229731144 6.044868707967777 Q -2.379391229731144 6.006168707967777 -2.352091229731144 5.975868707967777 Q -2.324791229731144 5.945568707967777 -2.288191229731144 5.927868707967777 Q -2.2515912297311442 5.9101687079677765 -2.208991229731144 5.9101687079677765 Q -2.163991229731144 5.9101687079677765 -2.127391229731144 5.928768707967777 Q -2.090791229731144 5.947368707967777 -2.064691229731144 5.978568707967777 Q -2.038591229731144 6.009768707967777 -2.024191229731144 6.048168707967776 Q -2.009791229731144 6.086568707967777 -2.009791229731144 6.126768707967777 Q -2.009791229731144 6.169368707967776 -2.024791229731144 6.208068707967777 Q -2.039791229731144 6.246768707967777 -2.066791229731144 6.277068707967777 Q -2.093791229731144 6.307368707967777 -2.1303912297311443 6.324768707967777 Q -2.166991229731144 6.342168707967777 -2.209591229731144 6.342168707967777 M -2.367391229731144 6.126168707967777 Q -2.367391229731144 6.160968707967776 -2.3559912297311443 6.193068707967777 Q -2.344591229731144 6.225168707967777 -2.323591229731144 6.250068707967777 Q -2.302591229731144 6.274968707967777 -2.2734912297311443 6.289668707967777 Q -2.244391229731144 6.304368707967777 -2.209591229731144 6.304368707967777 Q -2.172991229731144 6.304368707967777 -2.1438912297311443 6.289068707967777 Q -2.114791229731144 6.273768707967776 -2.094091229731144 6.248268707967776 Q -2.0733912297311443 6.222768707967777 -2.062591229731144 6.190968707967777 Q -2.051791229731144 6.159168707967777 -2.051791229731144 6.126168707967777 Q -2.051791229731144 6.091368707967777 -2.063191229731144 6.0595687079677765 Q -2.074591229731144 6.027768707967777 -2.0958912297311443 6.002568707967777 Q -2.117191229731144 5.977368707967777 -2.145991229731144 5.962968707967777 Q -2.1747912297311442 5.948568707967777 -2.209591229731144 5.948568707967777 Q -2.245591229731144 5.948568707967777 -2.274691229731144 5.963568707967776 Q -2.3037912297311443 5.978568707967777 -2.324491229731144 6.004068707967777 Q -2.345191229731144 6.029568707967777 -2.356291229731144 6.061368707967777 Q -2.367391229731144 6.093168707967777 -2.367391229731144 6.126168707967777 M -1.7563052922311444 6.342168707967777 Q -1.8067052922311444 6.342168707967777 -1.8415052922311443 6.324168707967777 Q -1.8763052922311443 6.306168707967776 -1.8967052922311443 6.275868707967777 Q -1.9171052922311442 6.245568707967776 -1.9264052922311443 6.207168707967777 Q -1.9357052922311442 6.168768707967777 -1.9357052922311442 6.127968707967777 L -1.9357052922311442 5.913168707967777 L -1.8943052922311443 5.913168707967777 L -1.8943052922311443 6.127968707967777 Q -1.8943052922311443 6.160968707967776 -1.8874052922311444 6.192768707967777 Q -1.8805052922311443 6.2245687079677765 -1.8649052922311442 6.249768707967776 Q -1.8493052922311444 6.274968707967777 -1.8229052922311444 6.289668707967777 Q -1.7965052922311444 6.304368707967777 -1.7569052922311443 6.304368707967777 Q -1.7161052922311444 6.304368707967777 -1.6894052922311444 6.289068707967777 Q -1.6627052922311443 6.273768707967776 -1.6474052922311444 6.2485687079677765 Q -1.6321052922311443 6.223368707967777 -1.6255052922311444 6.191868707967776 Q -1.6189052922311444 6.160368707967777 -1.6189052922311444 6.127968707967777 L -1.6189052922311444 5.913168707967777 L -1.5769052922311444 5.913168707967777 L -1.5769052922311444 6.127968707967777 Q -1.5769052922311444 6.170568707967777 -1.5865052922311444 6.209568707967777 Q -1.5961052922311443 6.2485687079677765 -1.6174052922311444 6.277968707967776 Q -1.6387052922311443 6.307368707967777 -1.6729052922311443 6.324768707967777 Q -1.7071052922311443 6.342168707967777 -1.7563052922311444 6.342168707967777 M -1.4758023625436445 6.339168707967777 L -1.4758023625436445 5.913168707967777 L -1.2958023625436443 5.913168707967777 Q -1.2682023625436445 5.913168707967777 -1.2454023625436443 5.924568707967777 Q -1.2226023625436444 5.935968707967777 -1.2055023625436445 5.955468707967777 Q -1.1884023625436444 5.9749687079677765 -1.1791023625436443 5.998668707967777 Q -1.1698023625436444 6.022368707967777 -1.1698023625436444 6.0469687079677765 Q -1.1698023625436444 6.077568707967777 -1.1815023625436445 6.104568707967776 Q -1.1932023625436443 6.1315687079677765 -1.2145023625436444 6.150168707967777 Q -1.2358023625436445 6.168768707967777 -1.2646023625436444 6.174768707967777 L -1.1602023625436444 6.339168707967777 L -1.2076023625436445 6.339168707967777 L -1.3078023625436443 6.181968707967777 L -1.4338023625436445 6.181968707967777 L -1.4338023625436445 6.339168707967777 L -1.4758023625436445 6.339168707967777 M -1.4338023625436445 6.144768707967777 L -1.2946023625436445 6.144768707967777 Q -1.2694023625436444 6.144768707967777 -1.2508023625436444 6.130968707967777 Q -1.2322023625436445 6.117168707967776 -1.2220023625436445 6.094668707967776 Q -1.2118023625436445 6.072168707967776 -1.2118023625436445 6.0469687079677765 Q -1.2118023625436445 6.021168707967777 -1.2235023625436443 5.999268707967777 Q -1.2352023625436443 5.977368707967777 -1.2547023625436444 5.963868707967777 Q -1.2742023625436443 5.950368707967777 -1.2982023625436443 5.950368707967777 L -1.4338023625436445 5.950368707967777 L -1.4338023625436445 6.144768707967777 M -0.9573903508248944 6.123168707967777 Q -0.9573903508248944 6.084168707967777 -0.9438903508248945 6.046668707967777 Q -0.9303903508248944 6.009168707967777 -0.9045903508248945 5.978268707967777 Q -0.8787903508248944 5.947368707967777 -0.8409903508248945 5.929068707967777 Q -0.8031903508248944 5.910768707967777 -0.7551903508248945 5.910768707967777 Q -0.6981903508248944 5.910768707967777 -0.6576903508248945 5.936868707967776 Q -0.6171903508248945 5.962968707967777 -0.5979903508248945 6.003768707967777 L -0.6309903508248944 6.024168707967776 Q -0.6447903508248944 5.995968707967776 -0.6657903508248945 5.979468707967777 Q -0.6867903508248945 5.962968707967777 -0.7104903508248945 5.955768707967777 Q -0.7341903508248945 5.948568707967777 -0.7575903508248945 5.948568707967777 Q -0.7959903508248944 5.948568707967777 -0.8253903508248944 5.963868707967777 Q -0.8547903508248944 5.979168707967776 -0.8748903508248944 6.0046687079677765 Q -0.8949903508248944 6.030168707967777 -0.9051903508248944 6.061668707967777 Q -0.9153903508248944 6.093168707967777 -0.9153903508248944 6.125568707967777 Q -0.9153903508248944 6.160968707967776 -0.9033903508248944 6.193368707967776 Q -0.8913903508248945 6.225768707967776 -0.8697903508248944 6.250668707967777 Q -0.8481903508248945 6.275568707967777 -0.8190903508248945 6.290268707967777 Q -0.7899903508248944 6.3049687079677765 -0.7557903508248944 6.3049687079677765 Q -0.7317903508248944 6.3049687079677765 -0.7065903508248945 6.296568707967777 Q -0.6813903508248944 6.288168707967777 -0.6594903508248944 6.270768707967777 Q -0.6375903508248945 6.253368707967777 -0.6243903508248945 6.225768707967776 L -0.5895903508248945 6.243768707967777 Q -0.6027903508248944 6.275568707967777 -0.6303903508248945 6.297768707967776 Q -0.6579903508248945 6.319968707967777 -0.6918903508248945 6.331368707967777 Q -0.7257903508248944 6.342768707967776 -0.7581903508248944 6.342768707967776 Q -0.8019903508248944 6.342768707967776 -0.8385903508248944 6.323868707967777 Q -0.8751903508248944 6.3049687079677765 -0.9018903508248944 6.273468707967777 Q -0.9285903508248945 6.241968707967777 -0.9429903508248945 6.202668707967777 Q -0.9573903508248944 6.163368707967777 -0.9573903508248944 6.123168707967777 M -0.34330587816864455 6.342168707967777 Q -0.39370587816864455 6.342168707967777 -0.4285058781686446 6.324168707967777 Q -0.46330587816864455 6.306168707967776 -0.4837058781686446 6.275868707967777 Q -0.5041058781686446 6.245568707967776 -0.5134058781686446 6.207168707967777 Q -0.5227058781686446 6.168768707967777 -0.5227058781686446 6.127968707967777 L -0.5227058781686446 5.913168707967777 L -0.48130587816864456 5.913168707967777 L -0.48130587816864456 6.127968707967777 Q -0.48130587816864456 6.160968707967776 -0.47440587816864455 6.192768707967777 Q -0.46750587816864453 6.2245687079677765 -0.4519058781686446 6.249768707967776 Q -0.4363058781686446 6.274968707967777 -0.40990587816864454 6.289668707967777 Q -0.38350587816864457 6.304368707967777 -0.3439058781686446 6.304368707967777 Q -0.3031058781686446 6.304368707967777 -0.2764058781686446 6.289068707967777 Q -0.2497058781686446 6.273768707967776 -0.2344058781686446 6.2485687079677765 Q -0.21910587816864457 6.223368707967777 -0.21250587816864458 6.191868707967776 Q -0.20590587816864458 6.160368707967777 -0.20590587816864458 6.127968707967777 L -0.20590587816864458 5.913168707967777 L -0.1639058781686446 5.913168707967777 L -0.1639058781686446 6.127968707967777 Q -0.1639058781686446 6.170568707967777 -0.1735058781686446 6.209568707967777 Q -0.1831058781686446 6.2485687079677765 -0.20440587816864458 6.277968707967776 Q -0.22570587816864457 6.307368707967777 -0.2599058781686446 6.324768707967777 Q -0.2941058781686446 6.342168707967777 -0.34330587816864455 6.342168707967777 M 0.23959705151885535 5.950368707967777 L 0.08779705151885539 5.950368707967777 L 0.08779705151885539 6.339168707967777 L 0.04579705151885538 6.339168707967777 L 0.04579705151885538 5.950368707967777 L -0.1060029484811446 5.950368707967777 L -0.1060029484811446 5.913168707967777 L 0.23959705151885535 5.913168707967777 L 0.23959705151885535 5.950368707967777 M 0.26149236401885534 6.387768707967777 L 0.2716923640188553 6.3373687079677765 L 0.25789236401885535 6.3373687079677765 L 0.25789236401885535 6.280368707967777 L 0.29749236401885537 6.280368707967777 L 0.29749236401885537 6.3373687079677765 L 0.28249236401885536 6.387768707967777 L 0.26149236401885534 6.387768707967777 M 0.5344967585501054 5.913168707967777 L 0.6736967585501054 6.142368707967777 L 0.8140967585501053 5.913168707967777 L 0.8596967585501054 5.913168707967777 L 0.6946967585501054 6.180768707967776 L 0.6946967585501054 6.339168707967777 L 0.6526967585501053 6.339168707967777 L 0.6526967585501053 6.179568707967777 L 0.4882967585501054 5.913168707967777 L 0.5344967585501054 5.913168707967777 M 1.0669991023001053 6.342168707967777 Q 1.0219991023001054 6.342168707967777 0.9853991023001054 6.324168707967777 Q 0.9487991023001054 6.306168707967776 0.9223991023001055 6.2752687079677765 Q 0.8959991023001055 6.2443687079677765 0.8815991023001054 6.205668707967777 Q 0.8671991023001054 6.166968707967777 0.8671991023001054 6.126168707967777 Q 0.8671991023001054 6.0835687079677765 0.8821991023001055 6.044868707967777 Q 0.8971991023001055 6.006168707967777 0.9244991023001055 5.975868707967777 Q 0.9517991023001054 5.945568707967777 0.9883991023001054 5.927868707967777 Q 1.0249991023001055 5.9101687079677765 1.0675991023001055 5.9101687079677765 Q 1.1125991023001054 5.9101687079677765 1.1491991023001054 5.928768707967777 Q 1.1857991023001055 5.947368707967777 1.2118991023001053 5.978568707967777 Q 1.2379991023001053 6.009768707967777 1.2523991023001053 6.048168707967776 Q 1.2667991023001055 6.086568707967777 1.2667991023001055 6.126768707967777 Q 1.2667991023001055 6.169368707967776 1.2517991023001054 6.208068707967777 Q 1.2367991023001055 6.246768707967777 1.2097991023001053 6.277068707967777 Q 1.1827991023001054 6.307368707967777 1.1461991023001055 6.324768707967777 Q 1.1095991023001055 6.342168707967777 1.0669991023001053 6.342168707967777 M 0.9091991023001055 6.126168707967777 Q 0.9091991023001055 6.160968707967776 0.9205991023001054 6.193068707967777 Q 0.9319991023001054 6.225168707967777 0.9529991023001054 6.250068707967777 Q 0.9739991023001054 6.274968707967777 1.0030991023001055 6.289668707967777 Q 1.0321991023001054 6.304368707967777 1.0669991023001053 6.304368707967777 Q 1.1035991023001055 6.304368707967777 1.1326991023001054 6.289068707967777 Q 1.1617991023001055 6.273768707967776 1.1824991023001055 6.248268707967776 Q 1.2031991023001054 6.222768707967777 1.2139991023001053 6.190968707967777 Q 1.2247991023001055 6.159168707967777 1.2247991023001055 6.126168707967777 Q 1.2247991023001055 6.091368707967777 1.2133991023001054 6.0595687079677765 Q 1.2019991023001055 6.027768707967777 1.1806991023001054 6.002568707967777 Q 1.1593991023001053 5.977368707967777 1.1305991023001054 5.962968707967777 Q 1.1017991023001055 5.948568707967777 1.0669991023001053 5.948568707967777 Q 1.0309991023001055 5.948568707967777 1.0018991023001054 5.963568707967776 Q 0.9727991023001055 5.978568707967777 0.9520991023001054 6.004068707967777 Q 0.9313991023001055 6.029568707967777 0.9202991023001055 6.061368707967777 Q 0.9091991023001055 6.093168707967777 0.9091991023001055 6.126168707967777 M 1.5202850398001053 6.342168707967777 Q 1.4698850398001053 6.342168707967777 1.4350850398001054 6.324168707967777 Q 1.4002850398001054 6.306168707967776 1.3798850398001055 6.275868707967777 Q 1.3594850398001055 6.245568707967776 1.3501850398001054 6.207168707967777 Q 1.3408850398001055 6.168768707967777 1.3408850398001055 6.127968707967777 L 1.3408850398001055 5.913168707967777 L 1.3822850398001054 5.913168707967777 L 1.3822850398001054 6.127968707967777 Q 1.3822850398001054 6.160968707967776 1.3891850398001053 6.192768707967777 Q 1.3960850398001055 6.2245687079677765 1.4116850398001055 6.249768707967776 Q 1.4272850398001053 6.274968707967777 1.4536850398001053 6.289668707967777 Q 1.4800850398001053 6.304368707967777 1.5196850398001054 6.304368707967777 Q 1.5604850398001053 6.304368707967777 1.5871850398001053 6.289068707967777 Q 1.6138850398001054 6.273768707967776 1.6291850398001053 6.2485687079677765 Q 1.6444850398001054 6.223368707967777 1.6510850398001053 6.191868707967776 Q 1.6576850398001053 6.160368707967777 1.6576850398001053 6.127968707967777 L 1.6576850398001053 5.913168707967777 L 1.6996850398001053 5.913168707967777 L 1.6996850398001053 6.127968707967777 Q 1.6996850398001053 6.170568707967777 1.6900850398001053 6.209568707967777 Q 1.6804850398001054 6.2485687079677765 1.6591850398001053 6.277968707967776 Q 1.6378850398001055 6.307368707967777 1.6036850398001055 6.324768707967777 Q 1.5694850398001055 6.342168707967777 1.5202850398001053 6.342168707967777 M 1.8007879694876052 6.339168707967777 L 1.8007879694876052 5.913168707967777 L 1.9807879694876054 5.913168707967777 Q 2.0083879694876052 5.913168707967777 2.0311879694876054 5.924568707967777 Q 2.053987969487605 5.935968707967777 2.071087969487605 5.955468707967777 Q 2.0881879694876053 5.9749687079677765 2.0974879694876054 5.998668707967777 Q 2.1067879694876055 6.022368707967777 2.1067879694876055 6.0469687079677765 Q 2.1067879694876055 6.077568707967777 2.0950879694876052 6.104568707967776 Q 2.0833879694876054 6.1315687079677765 2.0620879694876053 6.150168707967777 Q 2.040787969487605 6.168768707967777 2.0119879694876053 6.174768707967777 L 2.1163879694876053 6.339168707967777 L 2.068987969487605 6.339168707967777 L 1.9687879694876054 6.181968707967777 L 1.8427879694876053 6.181968707967777 L 1.8427879694876053 6.339168707967777 L 1.8007879694876052 6.339168707967777 M 1.8427879694876053 6.144768707967777 L 1.9819879694876053 6.144768707967777 Q 2.0071879694876054 6.144768707967777 2.025787969487605 6.130968707967777 Q 2.0443879694876053 6.117168707967776 2.0545879694876055 6.094668707967776 Q 2.0647879694876052 6.072168707967776 2.0647879694876052 6.0469687079677765 Q 2.0647879694876052 6.021168707967777 2.0530879694876054 5.999268707967777 Q 2.041387969487605 5.977368707967777 2.0218879694876053 5.963868707967777 Q 2.0023879694876054 5.950368707967777 1.9783879694876054 5.950368707967777 L 1.8427879694876053 5.950368707967777 L 1.8427879694876053 6.144768707967777 M 2.4866160944876055 5.916168707967777 L 2.5262160944876055 5.916168707967777 L 2.5862160944876056 6.067368707967777 L 2.6468160944876056 5.916168707967777 L 2.6870160944876056 5.916168707967777 L 2.6126160944876053 6.097968707967777 L 2.6942160944876052 6.290568707967776 L 2.8484160944876056 5.913168707967777 L 2.8940160944876054 5.913168707967777 L 2.7134160944876053 6.339168707967777 L 2.6762160944876054 6.339168707967777 L 2.5868160944876055 6.128568707967776 L 2.496816094487605 6.339168707967777 L 2.4602160944876053 6.339168707967777 L 2.2802160944876055 5.913168707967777 L 2.3252160944876055 5.913168707967777 L 2.4800160944876053 6.290568707967776 L 2.5610160944876053 6.097968707967777 L 2.4866160944876055 5.916168707967777 M 3.050929864018855 5.913168707967777 L 3.0863298640188552 5.913168707967777 L 3.2633298640188553 6.339168707967777 L 3.2189298640188553 6.339168707967777 L 3.163729864018855 6.205968707967777 L 2.972329864018855 6.205968707967777 L 2.917729864018855 6.339168707967777 L 2.872729864018855 6.339168707967777 L 3.050929864018855 5.913168707967777 M 3.154129864018855 6.172968707967777 L 3.068329864018855 5.9623687079677765 L 2.9813298640188552 6.172968707967777 L 3.154129864018855 6.172968707967777 M 3.280457403081355 5.913168707967777 L 3.419657403081355 6.142368707967777 L 3.560057403081355 5.913168707967777 L 3.605657403081355 5.913168707967777 L 3.440657403081355 6.180768707967776 L 3.440657403081355 6.339168707967777 L 3.398657403081355 6.339168707967777 L 3.398657403081355 6.179568707967777 L 3.234257403081355 5.913168707967777 L 3.280457403081355 5.913168707967777 M 3.787454473393855 6.194568707967777 L 3.787454473393855 6.156768707967776 L 4.050854473393855 6.156768707967776 L 4.050854473393855 6.194568707967777 L 3.787454473393855 6.194568707967777 M 4.412058281987604 5.913168707967777 L 4.447458281987604 5.913168707967777 L 4.624458281987605 6.339168707967777 L 4.580058281987604 6.339168707967777 L 4.524858281987604 6.205968707967777 L 4.333458281987604 6.205968707967777 L 4.278858281987604 6.339168707967777 L 4.2338582819876045 6.339168707967777 L 4.412058281987604 5.913168707967777 M 4.515258281987604 6.172968707967777 L 4.429458281987604 5.9623687079677765 L 4.3424582819876045 6.172968707967777 L 4.515258281987604 6.172968707967777 M 4.728573516362604 5.9905687079677765 L 4.728573516362604 6.339168707967777 L 4.686573516362604 6.339168707967777 L 4.686573516362604 5.913168707967777 L 4.721373516362604 5.913168707967777 L 5.000973516362604 6.268368707967777 L 5.000973516362604 5.913768707967777 L 5.042973516362604 5.913768707967777 L 5.042973516362604 6.339168707967777 L 5.0039735163626045 6.339168707967777 L 4.728573516362604 5.9905687079677765 M 5.153057110112604 5.913168707967777 L 5.292257110112605 6.142368707967777 L 5.432657110112604 5.913168707967777 L 5.4782571101126045 5.913168707967777 L 5.3132571101126045 6.180768707967776 L 5.3132571101126045 6.339168707967777 L 5.271257110112605 6.339168707967777 L 5.271257110112605 6.179568707967777 L 5.106857110112604 5.913168707967777 L 5.153057110112604 5.913168707967777 M 5.844557696050105 5.950368707967777 L 5.692757696050104 5.950368707967777 L 5.692757696050104 6.339168707967777 L 5.650757696050104 6.339168707967777 L 5.650757696050104 5.950368707967777 L 5.4989576960501045 5.950368707967777 L 5.4989576960501045 5.913168707967777 L 5.844557696050105 5.913168707967777 L 5.844557696050105 5.950368707967777 M 5.909048906987604 6.339168707967777 L 5.909048906987604 5.913168707967777 L 5.951048906987604 5.913168707967777 L 5.951048906987604 6.339168707967777 L 5.909048906987604 6.339168707967777 M 6.436140410893854 6.339168707967777 L 6.436140410893854 5.992368707967777 L 6.281940410893855 6.261768707967777 L 6.255540410893854 6.261768707967777 L 6.100740410893854 5.992368707967777 L 6.100740410893854 6.339168707967777 L 6.058740410893854 6.339168707967777 L 6.058740410893854 5.913168707967777 L 6.101940410893854 5.913168707967777 L 6.268140410893855 6.2047687079677765 L 6.4355404108938545 5.913168707967777 L 6.478140410893855 5.913168707967777 L 6.478140410893855 6.339168707967777 L 6.436140410893854 6.339168707967777 M 6.8720489069876045 6.301968707967776 L 6.8720489069876045 6.339168707967777 L 6.5858489069876045 6.339168707967777 L 6.5858489069876045 5.913168707967777 L 6.866648906987605 5.913168707967777 L 6.866648906987605 5.950368707967777 L 6.627848906987604 5.950368707967777 L 6.627848906987604 6.103968707967777 L 6.836048906987605 6.103968707967777 L 6.836048906987605 6.139368707967777 L 6.627848906987604 6.139368707967777 L 6.627848906987604 6.301968707967776 L 6.8720489069876045 6.301968707967776 M 6.950354180425104 6.387768707967777 L 6.960554180425104 6.3373687079677765 L 6.9467541804251045 6.3373687079677765 L 6.9467541804251045 6.280368707967777 L 6.986354180425105 6.280368707967777 L 6.986354180425105 6.3373687079677765 L 6.971354180425104 6.387768707967777 L 6.950354180425104 6.387768707967777 M 7.355338946050104 5.913168707967777 L 7.390738946050104 5.913168707967777 L 7.567738946050104 6.339168707967777 L 7.523338946050104 6.339168707967777 L 7.468138946050104 6.205968707967777 L 7.276738946050104 6.205968707967777 L 7.222138946050104 6.339168707967777 L 7.177138946050104 6.339168707967777 L 7.355338946050104 5.913168707967777 M 7.458538946050104 6.172968707967777 L 7.372738946050104 5.9623687079677765 L 7.285738946050104 6.172968707967777 L 7.458538946050104 6.172968707967777 M 7.671854180425104 5.9905687079677765 L 7.671854180425104 6.339168707967777 L 7.629854180425104 6.339168707967777 L 7.629854180425104 5.913168707967777 L 7.664654180425104 5.913168707967777 L 7.944254180425104 6.268368707967777 L 7.944254180425104 5.913768707967777 L 7.986254180425104 5.913768707967777 L 7.986254180425104 6.339168707967777 L 7.947254180425104 6.339168707967777 L 7.671854180425104 5.9905687079677765 M 8.096337774175105 5.913168707967777 L 8.235537774175105 6.142368707967777 L 8.375937774175105 5.913168707967777 L 8.421537774175105 5.913168707967777 L 8.256537774175104 6.180768707967776 L 8.256537774175104 6.339168707967777 L 8.214537774175104 6.339168707967777 L 8.214537774175104 6.179568707967777 L 8.050137774175106 5.913168707967777 L 8.096337774175105 5.913168707967777 M 8.645638360112605 5.916168707967777 L 8.685238360112605 5.916168707967777 L 8.745238360112605 6.067368707967777 L 8.805838360112604 5.916168707967777 L 8.846038360112605 5.916168707967777 L 8.771638360112606 6.097968707967777 L 8.853238360112606 6.290568707967776 L 9.007438360112605 5.913168707967777 L 9.053038360112605 5.913168707967777 L 8.872438360112605 6.339168707967777 L 8.835238360112605 6.339168707967777 L 8.745838360112606 6.128568707967776 L 8.655838360112606 6.339168707967777 L 8.619238360112606 6.339168707967777 L 8.439238360112604 5.913168707967777 L 8.484238360112604 5.913168707967777 L 8.639038360112606 6.290568707967776 L 8.720038360112605 6.097968707967777 L 8.645638360112605 5.916168707967777 M 9.449950664800106 5.913168707967777 L 9.449950664800106 6.339168707967777 L 9.408550664800106 6.339168707967777 L 9.408550664800106 6.1399687079677765 L 9.155950664800105 6.1399687079677765 L 9.155950664800105 6.339168707967777 L 9.113950664800106 6.339168707967777 L 9.113950664800106 5.913168707967777 L 9.155950664800105 5.913168707967777 L 9.155950664800105 6.102768707967777 L 9.408550664800106 6.102768707967777 L 9.408550664800106 5.913168707967777 L 9.449950664800106 5.913168707967777 M 9.843836309331357 6.301968707967776 L 9.843836309331357 6.339168707967777 L 9.557636309331356 6.339168707967777 L 9.557636309331356 5.913168707967777 L 9.838436309331355 5.913168707967777 L 9.838436309331355 5.950368707967777 L 9.599636309331355 5.950368707967777 L 9.599636309331355 6.103968707967777 L 9.807836309331355 6.103968707967777 L 9.807836309331355 6.139368707967777 L 9.599636309331355 6.139368707967777 L 9.599636309331355 6.301968707967776 L 9.843836309331357 6.301968707967776 M 9.923941582768856 6.339168707967777 L 9.923941582768856 5.913168707967777 L 10.103941582768856 5.913168707967777 Q 10.131541582768856 5.913168707967777 10.154341582768856 5.924568707967777 Q 10.177141582768856 5.935968707967777 10.194241582768857 5.955468707967777 Q 10.211341582768856 5.9749687079677765 10.220641582768856 5.998668707967777 Q 10.229941582768856 6.022368707967777 10.229941582768856 6.0469687079677765 Q 10.229941582768856 6.077568707967777 10.218241582768856 6.104568707967776 Q 10.206541582768857 6.1315687079677765 10.185241582768857 6.150168707967777 Q 10.163941582768857 6.168768707967777 10.135141582768856 6.174768707967777 L 10.239541582768856 6.339168707967777 L 10.192141582768857 6.339168707967777 L 10.091941582768856 6.181968707967777 L 9.965941582768856 6.181968707967777 L 9.965941582768856 6.339168707967777 L 9.923941582768856 6.339168707967777 M 9.965941582768856 6.144768707967777 L 10.105141582768857 6.144768707967777 Q 10.130341582768857 6.144768707967777 10.148941582768856 6.130968707967777 Q 10.167541582768857 6.117168707967776 10.177741582768856 6.094668707967776 Q 10.187941582768856 6.072168707967776 10.187941582768856 6.0469687079677765 Q 10.187941582768856 6.021168707967777 10.176241582768856 5.999268707967777 Q 10.164541582768857 5.977368707967777 10.145041582768856 5.963868707967777 Q 10.125541582768857 5.950368707967777 10.101541582768856 5.950368707967777 L 9.965941582768856 5.950368707967777 L 9.965941582768856 6.144768707967777 M 10.602850664800107 6.301968707967776 L 10.602850664800107 6.339168707967777 L 10.316650664800106 6.339168707967777 L 10.316650664800106 5.913168707967777 L 10.597450664800105 5.913168707967777 L 10.597450664800105 5.950368707967777 L 10.358650664800106 5.950368707967777 L 10.358650664800106 6.103968707967777 L 10.566850664800105 6.103968707967777 L 10.566850664800105 6.139368707967777 L 10.358650664800106 6.139368707967777 L 10.358650664800106 6.301968707967776 L 10.602850664800107 6.301968707967776" fill="#8c1627" fill-rule="nonzero"></path></g></g><defs><clipPath id="SvgjsClipPath1000"><path d=" M -1.1195748845163007 -4.6597434258212855 h 10.069912133789062 v 10.069912133789062 h -10.069912133789062 Z"></path></clipPath></defs></svg>